<svg width="72" height="80" viewBox="0 0 72 80" fill="none" xmlns="http://www.w3.org/2000/svg">
    <path d="M31.069 1.79489C34.1278 0.061188 37.8722 0.0611911 40.931 1.79489L53.835 9.10887L66.6211 16.6271C69.6519 18.4092 71.5241 21.652 71.5521 25.1678L71.67 40L71.5521 54.8322C71.5241 58.348 69.6519 61.5908 66.6211 63.3729L53.835 70.8911L40.931 78.2051C37.8722 79.9388 34.1278 79.9388 31.069 78.2051L18.165 70.8911L5.3789 63.3729C2.3481 61.5908 0.475851 58.348 0.447903 54.8322L0.329998 40L0.447903 25.1678C0.475851 21.652 2.3481 18.4092 5.37891 16.6271L18.165 9.10887L31.069 1.79489Z"
          fill="#80E85A" fill-opacity="0.2"/>
</svg>
