<svg width="42" height="47" viewBox="0 0 42 47" fill="none" xmlns="http://www.w3.org/2000/svg">
    <path fill-rule="evenodd" clip-rule="evenodd"
          d="M23.3805 0.629959C21.9038 -0.209988 20.0961 -0.209986 18.6195 0.629961L10.5 5.24853L2.45467 9.99606C0.991524 10.8595 0.0876787 12.4306 0.0741868 14.1339L0 23.5L0.0741868 32.8661C0.0876787 34.5695 0.991526 36.1405 2.45467 37.0039L10.5 41.7515L18.6195 46.37C20.0962 47.21 21.9038 47.21 23.3805 46.37L31.5 41.7515L39.5453 37.0039C41.0085 36.1405 41.9123 34.5694 41.9258 32.8661L42 23.5L41.9258 14.1339C41.9123 12.4306 41.0085 10.8595 39.5453 9.99606L31.5 5.24853L23.3805 0.629959ZM27.3 12.5491L22.1902 9.64257C21.4519 9.2226 20.5481 9.2226 19.8098 9.64257L14.7 12.5491L9.63693 15.5368C8.90536 15.9685 8.45343 16.7541 8.44669 17.6057L8.4 23.5L8.44669 29.3943C8.45343 30.2459 8.90536 31.0315 9.63693 31.4632L14.7 34.4509L19.8098 37.3574C20.5481 37.7774 21.4519 37.7774 22.1902 37.3574L27.3 34.4509L32.3631 31.4632C33.0946 31.0315 33.5466 30.2459 33.5533 29.3943L33.6 23.5L33.5533 17.6057C33.5466 16.7541 33.0946 15.9685 32.3631 15.5368L27.3 12.5491Z"
          fill="url(#paint0_linear_223_5320)"/>
    <circle cx="21" cy="24" r="6" fill="white"/>
    <defs>
        <linearGradient id="paint0_linear_223_5320" x1="0" y1="23.5" x2="42" y2="23.5" gradientUnits="userSpaceOnUse">
            <stop stop-color="#FFD633"/>
            <stop offset="0.3" stop-color="#FF8900"/>
            <stop offset="0.6" stop-color="#E33E78"/>
            <stop offset="1" stop-color="#7B61FF"/>
        </linearGradient>
    </defs>
</svg>
